<svg width="16" height="16" viewBox="0 0 16 16" fill="none" xmlns="http://www.w3.org/2000/svg">
<path d="M7.99992 15.1663C4.04659 15.1663 0.833252 11.953 0.833252 7.99967C0.833252 4.04634 4.04659 0.833008 7.99992 0.833008C11.9533 0.833008 15.1666 4.04634 15.1666 7.99967C15.1666 11.953 11.9533 15.1663 7.99992 15.1663ZM7.99992 1.83301C4.59992 1.83301 1.83325 4.59967 1.83325 7.99967C1.83325 11.3997 4.59992 14.1663 7.99992 14.1663C11.3999 14.1663 14.1666 11.3997 14.1666 7.99967C14.1666 4.59967 11.3999 1.83301 7.99992 1.83301Z" fill="#00A63E"/>
<path d="M7.053 10.3867C6.91967 10.3867 6.793 10.3334 6.69967 10.2401L4.81297 8.3534C4.61964 8.16007 4.61964 7.84007 4.81297 7.64673C5.0063 7.4534 5.3263 7.4534 5.51964 7.64673L7.053 9.18006L10.4797 5.7534C10.673 5.56007 10.993 5.56007 11.1863 5.7534C11.3797 5.94673 11.3797 6.26673 11.1863 6.46006L7.40634 10.2401C7.313 10.3334 7.18634 10.3867 7.053 10.3867Z" fill="#00A63E"/>
</svg>
