<svg width="40" height="40" viewBox="0 0 40 40" fill="none" xmlns="http://www.w3.org/2000/svg">
<g filter="url(#filter0_i_1608_5051)">
<rect width="40" height="40" rx="20" fill="white"/>
<rect x="0.25" y="0.25" width="39.5" height="39.5" rx="19.75" stroke="#FF6813" stroke-width="0.5"/>
<path d="M26.8853 29.0708L17.9677 10.6093H16.9175L7.65454 29.0708H12.215C12.215 29.0708 12.2056 29.0213 12.2009 28.9965C12.1819 28.8826 12.1346 28.8331 11.9549 28.7242C11.6142 28.5261 11.548 28.4518 11.2973 27.9318C11.1932 27.7189 11.1459 27.605 11.1459 27.5753C11.1459 27.5455 11.1695 27.4267 11.2074 27.3029C11.302 26.9711 11.2925 26.9067 11.1222 26.6244C11.0749 26.5452 11.0323 26.4561 11.0276 26.4264C11.0182 26.3917 11.0276 26.3422 11.0465 26.2728C11.0607 26.2184 11.0749 26.1193 11.0797 26.05C11.0891 25.8866 11.1175 25.847 11.3115 25.7133C11.5102 25.5746 11.5811 25.5102 11.6615 25.3815C11.7798 25.1933 11.865 25.0992 12.1015 24.8763C12.3759 24.6238 12.4752 24.5446 12.5415 24.5247C12.603 24.5049 12.6219 24.5148 12.7071 24.5941C12.8159 24.6981 12.8395 24.6981 13.3268 24.708L13.7526 24.7179L13.9513 24.8219C14.1831 24.9407 14.2588 24.9704 14.3628 24.9803C14.4764 24.9902 14.5473 24.9457 14.6183 24.8268C14.6514 24.7724 14.694 24.703 14.7176 24.6684C14.8075 24.5198 14.9022 24.5049 15.0914 24.5941C15.2333 24.6634 15.2901 24.6684 15.361 24.6089C15.4888 24.5148 18.0849 25.6785 17.9998 25.5002C18.4998 25.5002 18.0139 25.1042 17.9998 25.0002C17.9903 24.9259 18.0924 24.8912 18.0783 24.8219C18.0404 24.6535 18.1775 24.3762 18.343 24.1979C18.414 24.1187 18.8247 23.703 18.4998 23.5C18.4808 23.5594 18.7741 23.5 18.4998 23.5C18.5503 23.6685 18.4776 23.2027 18.4823 23.1037C18.4965 22.9254 15.9335 22.2814 16.0234 22.0635C16.0754 21.9298 16.0659 21.9001 15.9382 21.7615C15.8152 21.6178 15.7726 21.5436 15.7442 21.4198C15.6827 21.1127 15.749 20.8354 15.976 20.4293C16.1889 20.048 16.222 19.9391 16.2457 19.6023C16.2552 19.5033 16.2694 19.3943 16.2741 19.3696C16.293 19.3002 16.3498 19.2062 16.4491 19.0625C16.6336 18.805 16.6999 18.6466 16.7424 18.3841C16.7803 18.1464 16.8371 18.0474 16.9695 17.9731C17.0594 17.9236 17.1493 17.9236 17.2865 17.9731C17.4379 18.0276 17.5278 18.0424 17.7974 18.0573C17.9393 18.0622 18.0623 18.0771 18.1049 18.0919C18.2658 18.1464 18.4219 18.2504 18.5875 18.4188C18.701 18.5327 19.1741 19.0576 19.2167 19.1121C19.245 19.1517 19.2498 19.1715 19.2498 19.3003C19.2498 19.4884 19.2592 19.5082 19.4295 19.6073C19.5762 19.6964 19.6424 19.7608 19.6614 19.8351C19.6755 19.9044 19.6708 19.9341 19.6093 20.1669C19.5778 20.2956 19.5699 20.3815 19.5857 20.4244C19.6424 20.5878 19.8222 20.7611 20.0162 20.8453C20.1817 20.9146 20.2953 21.0335 20.3852 21.2167C20.4467 21.3554 20.4561 21.4297 20.4703 21.7763C20.4845 22.1576 20.4845 22.1626 20.3852 22.3012C20.3142 22.4003 20.2858 22.4894 20.2527 22.6974C20.2007 23.0143 20.2196 23.0936 20.3615 23.2471C20.4041 23.2966 20.5034 23.4155 20.5744 23.5145C20.8346 23.8562 21.0664 24.084 21.2651 24.1979C21.4685 24.3168 21.5631 24.4208 21.6625 24.6238C21.6909 24.6832 21.7618 24.807 21.8186 24.9011C21.8801 24.9902 21.9605 25.124 21.9984 25.1933C22.0741 25.3319 22.1781 25.6439 22.1876 25.7628C22.1971 25.842 22.1923 25.847 22.1498 25.8915C22.1072 25.9361 22.1072 25.9361 22.0173 25.9312C21.9132 25.9212 21.6625 25.842 21.4212 25.743C21.3219 25.7034 21.2225 25.6687 21.1468 25.6588C20.9576 25.6291 20.9103 25.6637 20.8772 25.842C20.8441 26.0153 20.7873 26.1045 20.5649 26.3471C20.371 26.5601 20.3662 26.565 20.2622 26.778C20.2054 26.8968 20.1155 27.0602 20.0635 27.1444C20.0162 27.2286 19.9452 27.3623 19.9074 27.4416C19.8742 27.5208 19.756 27.7733 19.6519 28.0061C19.5478 28.2438 19.4295 28.4914 19.387 28.5607C19.3491 28.6301 19.264 28.7836 19.2072 28.8975C19.1693 28.9718 19.1362 29.0262 19.1126 29.0708L26.8853 29.0708Z" fill="#FF6813"/>
<path d="M33.8871 28.5L25.1793 10.6091H24.0895H20.5L22.9517 16.0628L29 28.5H33.8871Z" fill="#20262C"/>
</g>
<defs>
<filter id="filter0_i_1608_5051" x="0" y="0" width="40" height="44" filterUnits="userSpaceOnUse" color-interpolation-filters="sRGB">
<feFlood flood-opacity="0" result="BackgroundImageFix"/>
<feBlend mode="normal" in="SourceGraphic" in2="BackgroundImageFix" result="shape"/>
<feColorMatrix in="SourceAlpha" type="matrix" values="0 0 0 0 0 0 0 0 0 0 0 0 0 0 0 0 0 0 127 0" result="hardAlpha"/>
<feOffset dy="4"/>
<feGaussianBlur stdDeviation="2"/>
<feComposite in2="hardAlpha" operator="arithmetic" k2="-1" k3="1"/>
<feColorMatrix type="matrix" values="0 0 0 0 0 0 0 0 0 0 0 0 0 0 0 0 0 0 0.25 0"/>
<feBlend mode="normal" in2="shape" result="effect1_innerShadow_1608_5051"/>
</filter>
</defs>
</svg>
