<svg width="32" height="32" viewBox="0 0 32 32" fill="none" xmlns="http://www.w3.org/2000/svg">
<g filter="url(#filter0_i_1636_2565)">
<rect width="32" height="32" rx="16" fill="white"/>
<path d="M21.5083 23.2563L14.3742 8.48712H13.534L6.12366 23.2563H9.77206C9.77206 23.2563 9.76449 23.2167 9.76071 23.1969C9.74557 23.1058 9.70772 23.0662 9.56391 22.979C9.29141 22.8206 9.23843 22.7611 9.03784 22.3452C8.95458 22.1748 8.91673 22.0837 8.91673 22.0599C8.91673 22.0361 8.93565 21.9411 8.96593 21.842C9.04162 21.5766 9.03406 21.5251 8.89781 21.2993C8.85996 21.2359 8.8259 21.1646 8.82211 21.1408C8.81455 21.1131 8.82211 21.0734 8.83725 21.018C8.84861 20.9744 8.85996 20.8952 8.86375 20.8397C8.87132 20.709 8.89402 20.6773 9.04919 20.5703C9.20815 20.4594 9.26492 20.4079 9.32926 20.3049C9.42387 20.1543 9.492 20.0791 9.68123 19.9008C9.90074 19.6987 9.98022 19.6354 10.0332 19.6195C10.0824 19.6037 10.0975 19.6116 10.1657 19.675C10.2527 19.7582 10.2716 19.7582 10.6615 19.7661L11.0021 19.774L11.161 19.8572C11.3465 19.9523 11.407 19.9761 11.4903 19.984C11.5811 19.9919 11.6379 19.9562 11.6947 19.8612C11.7212 19.8176 11.7552 19.7621 11.7741 19.7344C11.8461 19.6155 11.9217 19.6037 12.0731 19.675C12.1867 19.7304 12.2321 19.7344 12.2889 19.6869C12.391 19.6116 14.468 20.5425 14.3998 20.3999C14.7998 20.3999 14.4112 20.083 14.3998 19.9999C14.3923 19.9404 14.474 19.9127 14.4626 19.8572C14.4323 19.7225 14.542 19.5007 14.6745 19.358C14.7312 19.2946 15.0598 18.9621 14.7998 18.7997C14.7847 18.8472 15.0193 18.7997 14.7998 18.7997C14.8403 18.9345 14.7821 18.5619 14.7859 18.4826C14.7972 18.34 12.7468 17.8249 12.8187 17.6505C12.8603 17.5436 12.8528 17.5198 12.7506 17.4089C12.6522 17.294 12.6181 17.2346 12.5954 17.1355C12.5462 16.8899 12.5992 16.668 12.7809 16.3432C12.9512 16.0381 12.9777 15.951 12.9966 15.6816C13.0042 15.6023 13.0155 15.5152 13.0193 15.4954C13.0344 15.4399 13.0798 15.3646 13.1593 15.2497C13.3069 15.0437 13.3599 14.917 13.394 14.707C13.4243 14.5168 13.4697 14.4376 13.5756 14.3782C13.6475 14.3386 13.7195 14.3386 13.8292 14.3782C13.9503 14.4217 14.0222 14.4336 14.238 14.4455C14.3515 14.4495 14.4499 14.4614 14.484 14.4733C14.6126 14.5168 14.7375 14.6 14.87 14.7347C14.9608 14.8258 15.3393 15.2458 15.3733 15.2894C15.3961 15.3211 15.3998 15.3369 15.3998 15.4399C15.3998 15.5905 15.4074 15.6063 15.5437 15.6855C15.661 15.7568 15.714 15.8083 15.7291 15.8678C15.7405 15.9232 15.7367 15.947 15.6875 16.1332C15.6622 16.2362 15.6559 16.3049 15.6686 16.3392C15.714 16.4699 15.8578 16.6086 16.013 16.676C16.1454 16.7314 16.2362 16.8265 16.3082 16.9731C16.3574 17.084 16.3649 17.1434 16.3763 17.4208C16.3876 17.7258 16.3876 17.7298 16.3082 17.8407C16.2514 17.9199 16.2287 17.9912 16.2022 18.1576C16.1606 18.4112 16.1757 18.4746 16.2892 18.5974C16.3233 18.637 16.4028 18.7321 16.4595 18.8113C16.6677 19.0847 16.8531 19.2669 17.0121 19.358C17.1748 19.4531 17.2505 19.5363 17.33 19.6987C17.3527 19.7463 17.4095 19.8453 17.4549 19.9206C17.5041 19.9919 17.5684 20.0989 17.5987 20.1543C17.6593 20.2653 17.7425 20.5148 17.7501 20.6099C17.7577 20.6733 17.7539 20.6773 17.7198 20.7129C17.6858 20.7486 17.6858 20.7486 17.6139 20.7446C17.5306 20.7367 17.33 20.6733 17.137 20.5941C17.0575 20.5624 16.978 20.5347 16.9175 20.5267C16.7661 20.503 16.7283 20.5307 16.7018 20.6733C16.6753 20.812 16.6299 20.8833 16.452 21.0774C16.2968 21.2478 16.293 21.2517 16.2098 21.4221C16.1643 21.5172 16.0924 21.6479 16.0508 21.7152C16.013 21.7826 15.9562 21.8896 15.9259 21.9529C15.8994 22.0163 15.8048 22.2184 15.7215 22.4046C15.6383 22.5947 15.5437 22.7928 15.5096 22.8483C15.4793 22.9038 15.4112 23.0266 15.3658 23.1177C15.3355 23.1771 15.309 23.2207 15.2901 23.2563L21.5083 23.2563Z" fill="#FF6813"/>
<path d="M27.1097 22.7998L20.1435 8.48709H19.2716H16.4L18.3614 12.8501L23.2 22.7998H27.1097Z" fill="#20262C"/>
</g>
<defs>
<filter id="filter0_i_1636_2565" x="0" y="0" width="32" height="36" filterUnits="userSpaceOnUse" color-interpolation-filters="sRGB">
<feFlood flood-opacity="0" result="BackgroundImageFix"/>
<feBlend mode="normal" in="SourceGraphic" in2="BackgroundImageFix" result="shape"/>
<feColorMatrix in="SourceAlpha" type="matrix" values="0 0 0 0 0 0 0 0 0 0 0 0 0 0 0 0 0 0 127 0" result="hardAlpha"/>
<feOffset dy="4"/>
<feGaussianBlur stdDeviation="2"/>
<feComposite in2="hardAlpha" operator="arithmetic" k2="-1" k3="1"/>
<feColorMatrix type="matrix" values="0 0 0 0 0 0 0 0 0 0 0 0 0 0 0 0 0 0 0.12 0"/>
<feBlend mode="normal" in2="shape" result="effect1_innerShadow_1636_2565"/>
</filter>
</defs>
</svg>
