<svg width="25" height="24" viewBox="0 0 25 24" fill="none" xmlns="http://www.w3.org/2000/svg">
<path d="M6.93949 3.83408C7.20916 2.72197 8.79084 2.72197 9.06051 3.83408L9.80252 6.89413C9.8988 7.29118 10.2088 7.6012 10.6059 7.69748L13.6659 8.43949C14.778 8.70916 14.778 10.2908 13.6659 10.5605L10.6059 11.3025C10.2088 11.3988 9.8988 11.7088 9.80252 12.1059L9.06051 15.1659C8.79084 16.278 7.20916 16.278 6.93949 15.1659L6.19748 12.1059C6.1012 11.7088 5.79118 11.3988 5.39413 11.3025L2.33408 10.5605C1.22197 10.2908 1.22197 8.70916 2.33408 8.43949L5.39413 7.69748C5.79118 7.6012 6.1012 7.29118 6.19748 6.89413L6.93949 3.83408Z" fill="#30313D"/>
<path d="M15.8474 14.5133C16.0133 13.8289 16.9867 13.8289 17.1526 14.5133L17.6092 16.3964C17.6685 16.6407 17.8593 16.8315 18.1036 16.8908L19.9867 17.3474C20.6711 17.5133 20.6711 18.4867 19.9867 18.6526L18.1036 19.1092C17.8593 19.1685 17.6685 19.3593 17.6092 19.6036L17.1526 21.4867C16.9867 22.1711 16.0133 22.1711 15.8474 21.4867L15.3908 19.6036C15.3315 19.3593 15.1407 19.1685 14.8964 19.1092L13.0133 18.6526C12.3289 18.4867 12.3289 17.5133 13.0133 17.3474L14.8964 16.8908C15.1407 16.8315 15.3315 16.6407 15.3908 16.3964L15.8474 14.5133Z" fill="#30313D"/>
<path d="M19.0717 3.71184C19.1806 3.26272 19.8194 3.26272 19.9283 3.71184L20.2279 4.94763C20.2668 5.10798 20.392 5.23318 20.5524 5.27206L21.7882 5.57172C22.2373 5.68062 22.2373 6.31938 21.7882 6.42828L20.5524 6.72794C20.392 6.76682 20.2668 6.89202 20.2279 7.05237L19.9283 8.28816C19.8194 8.73728 19.1806 8.73728 19.0717 8.28816L18.7721 7.05237C18.7332 6.89202 18.608 6.76682 18.4476 6.72794L17.2118 6.42828C16.7627 6.31938 16.7627 5.68062 17.2118 5.57172L18.4476 5.27206C18.608 5.23318 18.7332 5.10798 18.7721 4.94763L19.0717 3.71184Z" fill="#30313D"/>
<path fill-rule="evenodd" clip-rule="evenodd" d="M19.5 3.93109L19.2554 4.93972C19.1577 5.34288 18.8429 5.65766 18.4397 5.75542L17.4311 6L18.4397 6.24458C18.8429 6.34234 19.1577 6.65712 19.2554 7.06029L19.5 8.06891L19.7446 7.06029C19.8423 6.65712 20.1571 6.34234 20.5603 6.24458L21.5689 6L20.5603 5.75542C20.1571 5.65766 19.8423 5.34288 19.7446 4.93972L19.5 3.93109ZM19.9895 3.38496C19.865 2.87168 19.135 2.87168 19.0105 3.38496L18.6681 4.79729C18.6236 4.98055 18.4805 5.12363 18.2973 5.16807L16.885 5.51054C16.3717 5.635 16.3717 6.365 16.885 6.48947L18.2973 6.83193C18.4805 6.87637 18.6236 7.01945 18.6681 7.20271L19.0105 8.61504C19.135 9.12832 19.865 9.12832 19.9895 8.61504L20.3319 7.20271C20.3764 7.01945 20.5195 6.87637 20.7027 6.83193L22.115 6.48947C22.6283 6.365 22.6283 5.635 22.115 5.51054L20.7027 5.16807C20.5195 5.12363 20.3764 4.98055 20.3319 4.79729L19.9895 3.38496Z" fill="#30313D"/>
<path d="M7.5 23C6.94772 23 6.5 22.5523 6.5 22C6.5 21.4477 6.94772 21 7.5 21C8.05228 21 8.5 21.4477 8.5 22C8.5 22.5523 8.05228 23 7.5 23Z" fill="#30313D"/>
<path d="M2.5 19C1.94772 19 1.5 18.5523 1.5 18C1.5 17.4477 1.94772 17 2.5 17C3.05228 17 3.5 17.4477 3.5 18C3.5 18.5523 3.05228 19 2.5 19Z" fill="#30313D"/>
<path d="M13.5 3C12.9477 3 12.5 2.55228 12.5 2C12.5 1.44772 12.9477 1 13.5 1C14.0523 1 14.5 1.44772 14.5 2C14.5 2.55228 14.0523 3 13.5 3Z" fill="#30313D"/>
<path d="M22.5 14C21.9477 14 21.5 13.5523 21.5 13C21.5 12.4477 21.9477 12 22.5 12C23.0523 12 23.5 12.4477 23.5 13C23.5 13.5523 23.0523 14 22.5 14Z" fill="#30313D"/>
</svg>
