<svg width="12" height="13" viewBox="0 0 12 13" fill="none" xmlns="http://www.w3.org/2000/svg">
<path d="M3.21975 2.41704C3.35458 1.86099 4.14542 1.86099 4.28025 2.41704L4.65126 3.94706C4.6994 4.14559 4.85441 4.3006 5.05294 4.34874L6.58296 4.71975C7.13901 4.85458 7.13901 5.64542 6.58296 5.78025L5.05294 6.15126C4.85441 6.1994 4.6994 6.35441 4.65126 6.55294L4.28025 8.08296C4.14542 8.63901 3.35458 8.63901 3.21975 8.08296L2.84874 6.55294C2.8006 6.35441 2.64559 6.1994 2.44706 6.15126L0.917042 5.78025C0.360986 5.64542 0.360986 4.85458 0.917041 4.71975L2.44706 4.34874C2.64559 4.3006 2.8006 4.14559 2.84874 3.94706L3.21975 2.41704Z" fill="#DF1B41"/>
<path d="M7.67369 7.75664C7.75667 7.41445 8.24333 7.41445 8.32631 7.75664L8.55462 8.69819C8.58425 8.82036 8.67964 8.91575 8.80181 8.94538L9.74336 9.17369C10.0855 9.25667 10.0855 9.74333 9.74336 9.82631L8.80181 10.0546C8.67964 10.0842 8.58425 10.1796 8.55462 10.3018L8.32631 11.2434C8.24333 11.5855 7.75667 11.5855 7.67369 11.2434L7.44538 10.3018C7.41575 10.1796 7.32036 10.0842 7.19819 10.0546L6.25664 9.82631C5.91445 9.74333 5.91445 9.25667 6.25664 9.17369L7.19819 8.94538C7.32036 8.91575 7.41575 8.82036 7.44538 8.69819L7.67369 7.75664Z" fill="#DF1B41"/>
<path d="M9.28586 2.35592C9.34031 2.13136 9.65969 2.13136 9.71414 2.35592L9.86397 2.97381C9.88341 3.05399 9.94601 3.11659 10.0262 3.13603L10.6441 3.28586C10.8686 3.34031 10.8686 3.65969 10.6441 3.71414L10.0262 3.86397C9.94601 3.88341 9.88341 3.94601 9.86397 4.02619L9.71414 4.64408C9.65969 4.86864 9.34031 4.86864 9.28586 4.64408L9.13603 4.02619C9.11659 3.94601 9.05399 3.88341 8.97381 3.86397L8.35592 3.71414C8.13136 3.65969 8.13136 3.34031 8.35592 3.28586L8.97381 3.13603C9.05399 3.11659 9.11659 3.05399 9.13603 2.97381L9.28586 2.35592Z" fill="#DF1B41"/>
<path fill-rule="evenodd" clip-rule="evenodd" d="M9.5 2.46555L9.37771 2.96986C9.32883 3.17144 9.17144 3.32883 8.96986 3.37771L8.46555 3.5L8.96986 3.62229C9.17144 3.67117 9.32883 3.82856 9.37771 4.03014L9.5 4.53445L9.62229 4.03014C9.67117 3.82856 9.82856 3.67117 10.0301 3.62229L10.5345 3.5L10.0301 3.37771C9.82856 3.32883 9.67117 3.17144 9.62229 2.96986L9.5 2.46555ZM9.74473 2.19248C9.6825 1.93584 9.3175 1.93584 9.25527 2.19248L9.08403 2.89864C9.06181 2.99027 8.99027 3.06181 8.89864 3.08403L8.19248 3.25527C7.93584 3.3175 7.93584 3.6825 8.19248 3.74473L8.89864 3.91597C8.99027 3.93819 9.06181 4.00973 9.08403 4.10136L9.25527 4.80752C9.3175 5.06416 9.6825 5.06416 9.74473 4.80752L9.91597 4.10136C9.93819 4.00973 10.0097 3.93819 10.1014 3.91597L10.8075 3.74473C11.0642 3.6825 11.0642 3.3175 10.8075 3.25527L10.1014 3.08403C10.0097 3.06181 9.93819 2.99027 9.91597 2.89864L9.74473 2.19248Z" fill="#DF1B41"/>
<path d="M3.5 12C3.22386 12 3 11.7761 3 11.5C3 11.2239 3.22386 11 3.5 11C3.77614 11 4 11.2239 4 11.5C4 11.7761 3.77614 12 3.5 12Z" fill="#DF1B41"/>
<path d="M1 10C0.723858 10 0.5 9.77614 0.5 9.5C0.5 9.22386 0.723858 9 1 9C1.27614 9 1.5 9.22386 1.5 9.5C1.5 9.77614 1.27614 10 1 10Z" fill="#DF1B41"/>
<path d="M6.5 2C6.22386 2 6 1.77614 6 1.5C6 1.22386 6.22386 1 6.5 1C6.77614 1 7 1.22386 7 1.5C7 1.77614 6.77614 2 6.5 2Z" fill="#DF1B41"/>
<path d="M11 7.5C10.7239 7.5 10.5 7.27614 10.5 7C10.5 6.72386 10.7239 6.5 11 6.5C11.2761 6.5 11.5 6.72386 11.5 7C11.5 7.27614 11.2761 7.5 11 7.5Z" fill="#DF1B41"/>
</svg>
