<svg width="16" height="16" viewBox="0 0 16 16" fill="none" xmlns="http://www.w3.org/2000/svg">
<path d="M4.29295 2.55589C4.47273 1.81449 5.52718 1.81449 5.70696 2.55589L6.20164 4.59592C6.26583 4.86063 6.4725 5.0673 6.73721 5.13149L8.77724 5.62617C9.51864 5.80595 9.51864 6.86039 8.77724 7.04018L6.73721 7.53485C6.4725 7.59904 6.26583 7.80571 6.20164 8.07042L5.70696 10.1104C5.52718 10.8519 4.47273 10.8519 4.29295 10.1104L3.79828 8.07042C3.73409 7.80571 3.52741 7.59904 3.26271 7.53485L1.22268 7.04018C0.481275 6.86039 0.481274 5.80595 1.22268 5.62617L3.26271 5.13149C3.52741 5.0673 3.73409 4.86063 3.79828 4.59592L4.29295 2.55589Z" fill="#FF5B00"/>
<path d="M10.2315 9.67536C10.3422 9.21911 10.9911 9.21911 11.1017 9.67536L11.4061 10.9308C11.4456 11.0937 11.5728 11.2208 11.7357 11.2603L12.9911 11.5648C13.4474 11.6754 13.4474 12.3243 12.9911 12.4349L11.7357 12.7393C11.5728 12.7788 11.4456 12.906 11.4061 13.0689L11.1017 14.3243C10.9911 14.7806 10.3422 14.7806 10.2315 14.3243L9.92713 13.0689C9.88763 12.906 9.76044 12.7788 9.59755 12.7393L8.34215 12.4349C7.8859 12.3243 7.8859 11.6754 8.34215 11.5648L9.59755 11.2603C9.76044 11.2208 9.88763 11.0937 9.92713 10.9308L10.2315 9.67536Z" fill="#FF5B00"/>
<path d="M12.3811 2.4744C12.4537 2.17498 12.8795 2.17498 12.9521 2.4744L13.1519 3.29826C13.1778 3.40516 13.2613 3.48862 13.3682 3.51454L14.1921 3.71432C14.4915 3.78692 14.4915 4.21275 14.1921 4.28536L13.3682 4.48513C13.2613 4.51105 13.1778 4.59452 13.1519 4.70142L12.9521 5.52528C12.8795 5.82469 12.4537 5.82469 12.3811 5.52528L12.1813 4.70142C12.1554 4.59452 12.0719 4.51105 11.965 4.48513L11.1412 4.28536C10.8418 4.21275 10.8418 3.78692 11.1412 3.71432L11.965 3.51454C12.0719 3.48862 12.1554 3.40516 12.1813 3.29826L12.3811 2.4744Z" fill="#FF5B00"/>
<path fill-rule="evenodd" clip-rule="evenodd" d="M12.6666 2.62057L12.5036 3.29298C12.4384 3.56176 12.2285 3.77161 11.9598 3.83679L11.2874 3.99984L11.9598 4.16289C12.2285 4.22806 12.4384 4.43792 12.5036 4.70669L12.6666 5.37911L12.8297 4.70669C12.8949 4.43792 13.1047 4.22806 13.3735 4.16289L14.0459 3.99984L13.3735 3.83679C13.1047 3.77161 12.8949 3.56176 12.8297 3.29298L12.6666 2.62057ZM12.9929 2.25648C12.91 1.91429 12.4233 1.91429 12.3403 2.25648L12.112 3.19803C12.0824 3.3202 11.987 3.41559 11.8648 3.44521L10.9233 3.67353C10.5811 3.7565 10.5811 4.24317 10.9233 4.32615L11.8648 4.55446C11.987 4.58408 12.0824 4.67947 12.112 4.80164L12.3403 5.7432C12.4233 6.08538 12.91 6.08538 12.9929 5.7432L13.2212 4.80164C13.2509 4.67947 13.3463 4.58408 13.4684 4.55446L14.41 4.32615C14.7522 4.24317 14.7522 3.7565 14.41 3.67353L13.4684 3.44521C13.3463 3.41559 13.2509 3.3202 13.2212 3.19803L12.9929 2.25648Z" fill="#FF5B00"/>
<path d="M4.66663 15.3332C4.29844 15.3332 3.99996 15.0347 3.99996 14.6665C3.99996 14.2983 4.29844 13.9998 4.66663 13.9998C5.03482 13.9998 5.33329 14.2983 5.33329 14.6665C5.33329 15.0347 5.03482 15.3332 4.66663 15.3332Z" fill="#FF5B00"/>
<path d="M1.33329 12.6665C0.965103 12.6665 0.666626 12.368 0.666626 11.9998C0.666626 11.6316 0.965103 11.3332 1.33329 11.3332C1.70148 11.3332 1.99996 11.6316 1.99996 11.9998C1.99996 12.368 1.70148 12.6665 1.33329 12.6665Z" fill="#FF5B00"/>
<path d="M8.66663 1.99984C8.29844 1.99984 7.99996 1.70136 7.99996 1.33317C7.99996 0.964981 8.29844 0.666504 8.66663 0.666504C9.03481 0.666504 9.33329 0.964981 9.33329 1.33317C9.33329 1.70136 9.03481 1.99984 8.66663 1.99984Z" fill="#FF5B00"/>
<path d="M14.6666 9.33317C14.2984 9.33317 14 9.03469 14 8.6665C14 8.29831 14.2984 7.99984 14.6666 7.99984C15.0348 7.99984 15.3333 8.29831 15.3333 8.6665C15.3333 9.03469 15.0348 9.33317 14.6666 9.33317Z" fill="#FF5B00"/>
</svg>
