<svg width="12" height="13" viewBox="0 0 12 13" fill="none" xmlns="http://www.w3.org/2000/svg">
<path d="M10.9823 5.88355L8.87294 7.7037L9.5156 10.4257C9.55105 10.5735 9.54192 10.7285 9.48936 10.871C9.43679 11.0136 9.34315 11.1374 9.22025 11.2268C9.09736 11.3162 8.95074 11.3672 8.7989 11.3732C8.64706 11.3793 8.49682 11.3403 8.36716 11.261L5.99997 9.80417L3.63138 11.261C3.50173 11.3398 3.35168 11.3785 3.2001 11.3722C3.04852 11.3659 2.9022 11.3148 2.77957 11.2255C2.65693 11.1362 2.56346 11.0126 2.51093 10.8703C2.45839 10.728 2.44914 10.5733 2.48435 10.4257L3.12935 7.7037L1.01997 5.88355C0.905267 5.78441 0.822311 5.65368 0.781463 5.50768C0.740615 5.36168 0.743685 5.20688 0.79029 5.06261C0.836896 4.91834 0.924971 4.79101 1.04352 4.6965C1.16206 4.60199 1.30582 4.5445 1.45685 4.5312L4.22247 4.30808L5.28935 1.7262C5.34709 1.58549 5.44538 1.46513 5.57171 1.38043C5.69804 1.29572 5.8467 1.25049 5.9988 1.25049C6.1509 1.25049 6.29956 1.29572 6.42589 1.38043C6.55222 1.46513 6.65051 1.58549 6.70825 1.7262L7.77466 4.30808L10.5403 4.5312C10.6916 4.544 10.8358 4.60117 10.9548 4.69555C11.0737 4.78993 11.1622 4.91732 11.2091 5.06176C11.256 5.2062 11.2592 5.36127 11.2184 5.50754C11.1775 5.65381 11.0944 5.78477 10.9795 5.88402L10.9823 5.88355Z" fill="#6A7383"/>
</svg>
