<svg width="16" height="16" viewBox="0 0 16 16" fill="none" xmlns="http://www.w3.org/2000/svg">
<path d="M8 15.1663C4.04667 15.1663 0.833336 11.953 0.833336 7.99967C0.833336 4.04634 4.04667 0.833008 8 0.833008C11.9533 0.833008 15.1667 4.04634 15.1667 7.99967C15.1667 11.953 11.9533 15.1663 8 15.1663ZM8 1.83301C4.6 1.83301 1.83334 4.59967 1.83334 7.99967C1.83334 11.3997 4.6 14.1663 8 14.1663C11.4 14.1663 14.1667 11.3997 14.1667 7.99967C14.1667 4.59967 11.4 1.83301 8 1.83301Z" fill="#FB2C36"/>
<path d="M6.11291 10.3869C5.98625 10.3869 5.85959 10.3403 5.75959 10.2403C5.56625 10.0469 5.56625 9.72693 5.75959 9.53359L9.53293 5.76023C9.72627 5.5669 10.0463 5.5669 10.2396 5.76023C10.4329 5.95357 10.4329 6.27357 10.2396 6.4669L6.46625 10.2403C6.37291 10.3403 6.23958 10.3869 6.11291 10.3869Z" fill="#FB2C36"/>
<path d="M9.88627 10.3869C9.7596 10.3869 9.63293 10.3403 9.53293 10.2403L5.75959 6.4669C5.56625 6.27357 5.56625 5.95357 5.75959 5.76023C5.95291 5.5669 6.27291 5.5669 6.46625 5.76023L10.2396 9.53359C10.4329 9.72693 10.4329 10.0469 10.2396 10.2403C10.1396 10.3403 10.0129 10.3869 9.88627 10.3869Z" fill="#FB2C36"/>
</svg>
